<svg xmlns="http://www.w3.org/2000/svg" viewBox="0 0 760 400" role="img" aria-labelledby="title"><title id="title">Wellness analytics illustration</title><defs><linearGradient id="g" x1="0" y1="0" x2="1" y2="1"><stop stop-color="#EAF0F4"/><stop offset="1" stop-color="#9EAEC2"/></linearGradient></defs><rect width="760" height="400" rx="40" fill="url(#g)"/><rect x="65" y="65" width="630" height="270" rx="30" fill="#F8FAFC"/><rect x="95" y="100" width="188" height="196" rx="24" fill="#546A77"/><circle cx="189" cy="184" r="58" fill="none" stroke="#78909E" stroke-width="14"/><path d="M189 126a58 58 0 1 1-52 83" fill="none" stroke="#F8FAFC" stroke-width="14" stroke-linecap="round"/><text x="189" y="190" text-anchor="middle" font-family="Arial" font-size="28" font-weight="700" fill="#fff">81%</text><text x="189" y="254" text-anchor="middle" font-family="Arial" font-size="14" fill="#EAF0F4">balanced week</text><g><rect x="330" y="112" width="320" height="74" rx="18" fill="#E6EDF1"/><rect x="355" y="143" width="235" height="14" rx="7" fill="#CCD7DE"/><rect x="355" y="143" width="176" height="14" rx="7" fill="#698291"/><text x="355" y="133" font-family="Arial" font-size="13" font-weight="700" fill="#546A77">Screen-time trend</text><rect x="330" y="202" width="150" height="74" rx="18" fill="#9EAEC2"/><rect x="500" y="202" width="150" height="74" rx="18" fill="#698291"/><text x="350" y="230" font-family="Arial" font-size="13" font-weight="700" fill="#26343C">Focus</text><text x="350" y="257" font-family="Arial" font-size="22" font-weight="700" fill="#546A77">5 sessions</text><text x="520" y="230" font-family="Arial" font-size="13" font-weight="700" fill="#fff">Recovery</text><text x="520" y="257" font-family="Arial" font-size="22" font-weight="700" fill="#fff">7.6h</text></g></svg>
