<svg xmlns="http://www.w3.org/2000/svg" viewBox="0 0 680 680" role="img" aria-labelledby="title"><title id="title">Calm focus illustration</title><defs><linearGradient id="g" x1="0" y1="0" x2="1" y2="1"><stop stop-color="#546A77"/><stop offset="1" stop-color="#8B9EB2"/></linearGradient></defs><rect width="680" height="680" rx="52" fill="url(#g)"/><circle cx="520" cy="144" r="104" fill="#fff" opacity=".08"/><circle cx="101" cy="524" r="135" fill="#fff" opacity=".06"/><path d="M0 495c117-82 223-63 331-24 136 49 246-17 349-92v301H0z" fill="#9EAEC2" opacity=".28"/>
<rect x="165" y="158" width="350" height="304" rx="34" fill="#F8FAFC"/><rect x="194" y="190" width="292" height="213" rx="22" fill="#E7EDF1"/><circle cx="340" cy="292" r="72" fill="#fff"/><path d="M340 231a61 61 0 1 1-56 85" fill="none" stroke="#698291" stroke-width="15" stroke-linecap="round"/><text x="340" y="294" text-anchor="middle" font-family="Arial" font-size="32" font-weight="700" fill="#546A77">25:00</text><text x="340" y="320" text-anchor="middle" font-family="Arial" font-size="14" fill="#698291">focus session</text><rect x="244" y="429" width="192" height="29" rx="14" fill="#698291"/>
<path d="M130 492h420" stroke="#F8FAFC" stroke-width="15" stroke-linecap="round"/><g fill="#fff"><rect x="95" y="92" width="145" height="58" rx="20" opacity=".95"/><rect x="443" y="500" width="144" height="58" rx="20" opacity=".95"/></g><g font-family="Arial" fill="#546A77" font-weight="700"><text x="127" y="128" font-size="17">One task open</text><text x="469" y="536" font-size="17">Mind feels clear</text></g></svg>
