<svg xmlns="http://www.w3.org/2000/svg" viewBox="0 0 680 520" role="img" aria-labelledby="title"><title id="title">Daily wellbeing check-in illustration</title><defs><linearGradient id="g" x1="0" y1="0" x2="1" y2="1"><stop stop-color="#546A77"/><stop offset="1" stop-color="#8B9EB2"/></linearGradient></defs><rect width="680" height="520" rx="42" fill="url(#g)"/><circle cx="546" cy="103" r="58" fill="#F8FAFC"/><path d="M566 78a43 43 0 1 0 6 70 48 48 0 1 1-6-70z" fill="#9EAEC2"/><path d="M0 404c103-63 199-56 304-8 137 63 243-16 376-117v241H0z" fill="#fff" opacity=".1"/><rect x="83" y="82" width="328" height="333" rx="34" fill="#F8FAFC"/><text x="119" y="126" font-family="Arial" font-size="18" font-weight="700" fill="#546A77">How today felt</text><g font-family="Arial" font-weight="700"><rect x="119" y="153" width="112" height="44" rx="15" fill="#698291"/><text x="175" y="181" text-anchor="middle" font-size="14" fill="#fff">Calm</text><rect x="243" y="153" width="112" height="44" rx="15" fill="#E2E9EE"/><text x="299" y="181" text-anchor="middle" font-size="14" fill="#546A77">Tired</text></g><text x="119" y="233" font-family="Arial" font-size="13" fill="#698291">Energy</text><rect x="119" y="247" width="236" height="14" rx="7" fill="#D5DFE5"/><rect x="119" y="247" width="157" height="14" rx="7" fill="#8B9EB2"/><text x="119" y="302" font-family="Arial" font-size="13" fill="#698291">Sleep</text><rect x="119" y="317" width="236" height="14" rx="7" fill="#D5DFE5"/><rect x="119" y="317" width="188" height="14" rx="7" fill="#698291"/><rect x="119" y="356" width="236" height="35" rx="13" fill="#E7EDF1"/><text x="137" y="379" font-family="Arial" font-size="13" fill="#546A77">3 mindful breaks recorded</text><g fill="#fff" opacity=".95"><rect x="442" y="212" width="174" height="74" rx="22"/><rect x="430" y="314" width="188" height="74" rx="22"/></g><g font-family="Arial" fill="#546A77"><text x="470" y="242" font-size="15" font-weight="700">Name the feeling</text><text x="470" y="263" font-size="12">then choose one gentle reset</text><text x="457" y="344" font-size="15" font-weight="700">Protect tonight</text><text x="457" y="365" font-size="12">with an earlier screen stop</text></g></svg>
