<svg xmlns="http://www.w3.org/2000/svg" viewBox="0 0 620 390" role="img" aria-labelledby="title"><title id="title">Balanced day illustration</title><defs><linearGradient id="g" x1="0" y1="0" x2="1" y2="1"><stop stop-color="#EAF0F4"/><stop offset="1" stop-color="#9EAEC2"/></linearGradient></defs><rect width="620" height="390" rx="36" fill="url(#g)"/><circle cx="493" cy="92" r="58" fill="#F8FAFC" opacity=".8"/><path d="M0 312c87-48 156-34 244-1 125 47 229 22 376-71v150H0z" fill="#698291" opacity=".2"/><rect x="350" y="65" width="174" height="260" rx="31" fill="#F8FAFC"/><rect x="367" y="91" width="140" height="205" rx="21" fill="#E3EAF0"/><circle cx="437" cy="173" r="49" fill="none" stroke="#C6D1D9" stroke-width="12"/><path d="M437 124a49 49 0 1 1-43 72" fill="none" stroke="#698291" stroke-width="12" stroke-linecap="round"/><text x="437" y="179" text-anchor="middle" font-family="Arial" font-size="23" font-weight="700" fill="#546A77">82</text><rect x="392" y="244" width="90" height="14" rx="7" fill="#C7D2DA"/><rect x="392" y="244" width="65" height="14" rx="7" fill="#8B9EB2"/>
<circle cx="177" cy="136" r="45" fill="#EFC3A7"/><path d="M132 132c8-55 83-65 97-15-23-11-46-5-63 12-11 10-21 9-34 3z" fill="#26343C"/><path d="M117 217c16-50 109-52 124 3l25 100H91z" fill="#546A77"/><path d="M110 232c-30 16-48 42-61 73" fill="none" stroke="#EFC3A7" stroke-width="21" stroke-linecap="round"/><path d="M242 231c32 19 51 41 63 71" fill="none" stroke="#EFC3A7" stroke-width="21" stroke-linecap="round"/><rect x="142" y="212" width="73" height="84" rx="14" fill="#F8FAFC"/><path d="M178 236v34m-17-17h34" stroke="#698291" stroke-width="6" stroke-linecap="round"/><rect x="68" y="312" width="230" height="16" rx="8" fill="#F8FAFC" opacity=".9"/></svg>
