<svg xmlns="http://www.w3.org/2000/svg" viewBox="0 0 720 470" role="img" aria-labelledby="title"><title id="title">Digital detox path illustration</title><defs><linearGradient id="g" x1="0" y1="0" x2="1" y2="1"><stop stop-color="#F3F6F8"/><stop offset="1" stop-color="#9EAEC2"/></linearGradient></defs><rect width="720" height="470" rx="40" fill="url(#g)"/><circle cx="612" cy="91" r="52" fill="#F8FAFC" opacity=".82"/><path d="M0 348c109-59 178-40 273 8 124 63 259-13 447-108v222H0z" fill="#698291" opacity=".25"/><path d="M74 383c93-38 151-95 231-87 91 9 103 94 193 68 63-19 98-91 160-109" fill="none" stroke="#F8FAFC" stroke-width="30" stroke-linecap="round"/><g fill="#546A77"><circle cx="114" cy="367" r="20"/><circle cx="286" cy="303" r="20"/><circle cx="474" cy="368" r="20"/><circle cx="635" cy="267" r="20"/></g><g fill="#fff"><path d="M107 367l6 6 12-14" fill="none" stroke="#fff" stroke-width="5" stroke-linecap="round" stroke-linejoin="round"/><text x="286" y="310" text-anchor="middle" font-family="Arial" font-size="17" font-weight="700">2</text><text x="474" y="375" text-anchor="middle" font-family="Arial" font-size="17" font-weight="700">3</text><text x="635" y="274" text-anchor="middle" font-family="Arial" font-size="17" font-weight="700">4</text></g><rect x="74" y="62" width="235" height="166" rx="28" fill="#F8FAFC"/><text x="103" y="104" font-family="Arial" font-size="15" font-weight="700" fill="#698291">7-day reset</text><text x="103" y="145" font-family="Arial" font-size="28" font-weight="700" fill="#546A77">Less scrolling</text><text x="103" y="176" font-family="Arial" font-size="15" fill="#698291">More space for study and sleep</text><rect x="103" y="195" width="158" height="13" rx="7" fill="#D2DCE2"/><rect x="103" y="195" width="93" height="13" rx="7" fill="#698291"/><rect x="448" y="77" width="162" height="119" rx="24" fill="#546A77"/><path d="M530 105v45m-22-22h44" stroke="#fff" stroke-width="7" stroke-linecap="round"/><text x="529" y="176" text-anchor="middle" font-family="Arial" font-size="14" font-weight="700" fill="#fff">Create a reset</text></svg>
