<svg xmlns="http://www.w3.org/2000/svg" viewBox="0 0 760 430" role="img" aria-labelledby="title"><title id="title">Peaceful focus room</title><defs><linearGradient id="g" x1="0" y1="0" x2="1" y2="1"><stop stop-color="#314650"/><stop offset="1" stop-color="#698291"/></linearGradient></defs><rect width="760" height="430" rx="40" fill="url(#g)"/><rect x="70" y="63" width="192" height="192" rx="30" fill="#EAF0F4"/><circle cx="166" cy="159" r="62" fill="none" stroke="#CBD6DD" stroke-width="14"/><path d="M166 97a62 62 0 1 1-56 88" fill="none" stroke="#698291" stroke-width="14" stroke-linecap="round"/><text x="166" y="165" text-anchor="middle" font-family="Arial" font-size="28" font-weight="700" fill="#546A77">25:00</text><rect x="103" y="285" width="126" height="18" rx="9" fill="#F8FAFC" opacity=".9"/><rect x="530" y="74" width="154" height="224" rx="28" fill="#F8FAFC"/><rect x="550" y="98" width="114" height="86" rx="18" fill="#DDE6EB"/><circle cx="607" cy="141" r="28" fill="#8B9EB2"/><path d="M607 124v34m-17-17h34" stroke="#fff" stroke-width="6" stroke-linecap="round"/><rect x="550" y="202" width="114" height="18" rx="9" fill="#D2DCE2"/><rect x="550" y="236" width="84" height="18" rx="9" fill="#9EAEC2"/><path d="M317 330c25-89 123-113 172-31l37 73H287z" fill="#9EAEC2" opacity=".5"/><path d="M0 372h760" stroke="#F8FAFC" stroke-width="18" opacity=".8"/><g font-family="Arial" fill="#fff"><text x="316" y="93" font-size="18" font-weight="700">Quiet mode</text><text x="316" y="121" font-size="14" opacity=".75">One task. One timer. No pressure.</text><text x="316" y="167" font-size="14" opacity=".75">A defined ending makes focus feel lighter.</text></g></svg>
