<svg xmlns="http://www.w3.org/2000/svg" viewBox="0 0 760 560" role="img" aria-labelledby="title desc">
<title id="title">Calm digital wellness workspace</title><desc id="desc">A person beside a phone showing balanced screen habits, focus, sleep and breaks.</desc>
<defs><linearGradient id="bg" x1="0" y1="0" x2="1" y2="1"><stop stop-color="#546A77"/><stop offset=".58" stop-color="#698291"/><stop offset="1" stop-color="#9EAEC2"/></linearGradient><filter id="shadow" x="-30%" y="-30%" width="160%" height="160%"><feDropShadow dx="0" dy="18" stdDeviation="18" flood-color="#26343C" flood-opacity=".22"/></filter></defs>
<rect width="760" height="560" rx="46" fill="url(#bg)"/><circle cx="102" cy="98" r="54" fill="#fff" opacity=".09"/><circle cx="674" cy="118" r="92" fill="#fff" opacity=".08"/><path d="M28 474c145-104 240-34 360-78 138-50 203-157 344-102v266H28z" fill="#fff" opacity=".09"/>
<g filter="url(#shadow)"><rect x="390" y="82" width="244" height="394" rx="42" fill="#F8FAFC"/><rect x="409" y="108" width="206" height="334" rx="27" fill="#E8EEF2"/><rect x="473" y="93" width="78" height="9" rx="5" fill="#9EAEC2"/>
<circle cx="512" cy="218" r="70" fill="none" stroke="#CFD9E0" stroke-width="16"/><path d="M512 148a70 70 0 1 1-62 102" fill="none" stroke="#698291" stroke-width="16" stroke-linecap="round"/><text x="512" y="213" text-anchor="middle" font-family="Arial" font-size="30" font-weight="700" fill="#546A77">78%</text><text x="512" y="238" text-anchor="middle" font-family="Arial" font-size="13" fill="#698291">balanced today</text>
<rect x="436" y="318" width="152" height="20" rx="10" fill="#D8E1E7"/><rect x="436" y="318" width="107" height="20" rx="10" fill="#8B9EB2"/><rect x="436" y="356" width="70" height="54" rx="17" fill="#9EAEC2"/><rect x="518" y="356" width="70" height="54" rx="17" fill="#698291"/><circle cx="470" cy="376" r="8" fill="#546A77"/><path d="M464 392h13" stroke="#546A77" stroke-width="5" stroke-linecap="round"/><path d="M544 371v23m-11-12h22" stroke="#fff" stroke-width="5" stroke-linecap="round"/></g>
<g><circle cx="252" cy="171" r="55" fill="#F2C9AE"/><path d="M194 167c3-65 99-81 123-18-31-20-61-13-88 10-12 10-22 12-35 8z" fill="#26343C"/><path d="M191 257c17-48 111-57 134 4l29 152H155z" fill="#F8FAFC"/><path d="M177 285c-41 20-70 70-79 126" fill="none" stroke="#F2C9AE" stroke-width="25" stroke-linecap="round"/><path d="M320 287c42 26 59 68 64 111" fill="none" stroke="#F2C9AE" stroke-width="25" stroke-linecap="round"/><rect x="207" y="256" width="90" height="108" rx="18" fill="#8B9EB2"/><circle cx="252" cy="304" r="18" fill="#F8FAFC" opacity=".9"/><path d="M252 294v20m-10-10h20" stroke="#698291" stroke-width="5" stroke-linecap="round"/><path d="M160 410h195l-16 65H176z" fill="#314650"/><path d="M136 475h245" stroke="#F8FAFC" stroke-width="12" stroke-linecap="round" opacity=".9"/></g>
<g font-family="Arial" font-weight="700"><rect x="65" y="65" width="156" height="54" rx="18" fill="#fff" opacity=".94"/><circle cx="92" cy="92" r="13" fill="#698291"/><text x="115" y="98" font-size="16" fill="#546A77">Focus protected</text><rect x="558" y="454" width="144" height="54" rx="18" fill="#fff" opacity=".94"/><path d="M584 469v24m-10-12h20" stroke="#698291" stroke-width="5" stroke-linecap="round"/><text x="611" y="487" font-size="15" fill="#546A77">Take a break</text></g>
</svg>
