<svg xmlns="http://www.w3.org/2000/svg" viewBox="0 0 620 480" role="img" aria-labelledby="title"><title id="title">Phone usage categories illustration</title><defs><linearGradient id="g" x1="0" y1="0" x2="1" y2="1"><stop stop-color="#546A77"/><stop offset="1" stop-color="#9EAEC2"/></linearGradient></defs><rect width="620" height="480" rx="42" fill="url(#g)"/><circle cx="95" cy="86" r="53" fill="#fff" opacity=".08"/><circle cx="531" cy="382" r="92" fill="#fff" opacity=".08"/><rect x="215" y="44" width="206" height="392" rx="39" fill="#F8FAFC"/><rect x="233" y="75" width="170" height="323" rx="25" fill="#E6EDF1"/><rect x="277" y="58" width="81" height="9" rx="5" fill="#9EAEC2"/><text x="318" y="117" text-anchor="middle" font-family="Arial" font-size="18" font-weight="700" fill="#546A77">Today</text><g font-family="Arial"><rect x="253" y="140" width="130" height="58" rx="18" fill="#9EAEC2"/><circle cx="276" cy="169" r="12" fill="#546A77"/><text x="298" y="166" font-size="13" font-weight="700" fill="#26343C">Study</text><text x="298" y="183" font-size="12" fill="#546A77">2h 20m</text><rect x="253" y="212" width="130" height="58" rx="18" fill="#C9D5DC"/><circle cx="276" cy="241" r="12" fill="#698291"/><text x="298" y="238" font-size="13" font-weight="700" fill="#26343C">Social</text><text x="298" y="255" font-size="12" fill="#546A77">54m</text><rect x="253" y="284" width="130" height="58" rx="18" fill="#698291"/><circle cx="276" cy="313" r="12" fill="#F8FAFC"/><text x="298" y="310" font-size="13" font-weight="700" fill="#fff">Focus</text><text x="298" y="327" font-size="12" fill="#EAF0F4">1h 40m</text></g><g fill="#fff" opacity=".95"><rect x="48" y="151" width="139" height="64" rx="20"/><rect x="434" y="232" width="143" height="64" rx="20"/></g><g font-family="Arial" font-weight="700" fill="#546A77"><text x="75" y="177" font-size="14">Notice patterns</text><text x="75" y="197" font-size="12" font-weight="400">without judgment</text><text x="459" y="258" font-size="14">Set one limit</text><text x="459" y="278" font-size="12" font-weight="400">that feels realistic</text></g></svg>
