<svg xmlns="http://www.w3.org/2000/svg" viewBox="0 0 96 96" role="img" aria-label="Savoria logo">
  <rect width="96" height="96" rx="24" fill="#FFF3E0"/>
  <circle cx="48" cy="48" r="37" fill="#E1492D" opacity="0.10"/>
  <path d="M27 53c-7-3-11-9-11-16 0-10 8-18 18-18 3 0 6 1 9 3 4-7 12-11 21-8 7 2 12 8 13 16 7 2 12 8 12 16 0 9-7 16-16 16H27Z" fill="#FFF8EC" stroke="#E1492D" stroke-width="5" stroke-linejoin="round"/>
  <path d="M25 58h47v12c0 5-4 9-9 9H34c-5 0-9-4-9-9V58Z" fill="#E1492D"/>
  <path d="M33 64h31" stroke="#FFF3E0" stroke-width="5" stroke-linecap="round"/>
  <path d="M45 37c4-5 10-5 14 0" fill="none" stroke="#7A8B49" stroke-width="5" stroke-linecap="round"/>
</svg>
